<?xml version="1.0" encoding="utf-8"?>
<!-- Generator: Adobe Illustrator 23.0.1, SVG Export Plug-In . SVG Version: 6.00 Build 0)  -->
<svg version="1.1" id="图层_1" xmlns="http://www.w3.org/2000/svg" xmlns:xlink="http://www.w3.org/1999/xlink" x="0px" y="0px"
	 viewBox="0 0 361 211" style="enable-background:new 0 0 361 211;" xml:space="preserve">
<style type="text/css">
	.st0{fill:#A5A5A5;}
	.st1{fill:url(#SVGID_1_);}
	.st2{clip-path:url(#SVGID_3_);}
	.st3{fill:url(#SVGID_4_);}
	.st4{fill:url(#SVGID_5_);}
	.st5{fill:url(#SVGID_6_);}
	.st6{fill:none;}
	.st7{fill:#F74437;}
	.st8{clip-path:url(#SVGID_8_);fill-rule:evenodd;clip-rule:evenodd;fill:url(#SVGID_9_);}
	.st9{clip-path:url(#SVGID_11_);fill:url(#SVGID_12_);}
	.st10{clip-path:url(#SVGID_14_);fill:url(#SVGID_15_);}
	.st11{clip-path:url(#SVGID_17_);fill:url(#SVGID_18_);}
	.st12{clip-path:url(#SVGID_20_);fill:none;}
	.st13{clip-path:url(#SVGID_22_);fill:none;}
	.st14{clip-path:url(#SVGID_24_);fill:none;}
	.st15{clip-path:url(#SVGID_26_);fill:none;}
	.st16{fill:url(#SVGID_27_);}
	.st17{clip-path:url(#SVGID_29_);fill-rule:evenodd;clip-rule:evenodd;fill:url(#SVGID_30_);}
</style>
<g>
	<path d="M213.1,132.9c6.5-3.1,12.3-6.6,17.6-10.7c-1.9-6-3.1-13.3-3.6-21.9h-17.7v11.2c4.5-0.8,9.1-1.6,13.9-2.6
		c0.1,2,0.1,3.9,0.2,5.4c-4.8,0.9-9.5,1.8-14.1,2.7v16.1c0,5.1-2.5,7.8-7.4,7.8c-3,0-6.1,0-9.1-0.2c-0.2-2-0.6-4-1.2-5.8
		c3.3,0.4,6.3,0.6,8.9,0.6c2.1,0,3.2-1.1,3.2-3.3v-14.1c-4.5,0.9-9,1.8-13.4,2.7l-1.4-5.9c4.7-0.8,9.6-1.6,14.7-2.5v-12.2H189v-5
		h14.7V84.9c-3.6,0.4-7.5,1-11.6,1.4c-0.3-1.7-0.9-3.5-1.5-5.5c11.1-1.1,20.8-2.4,28.8-4.1l1.6,5.5c-3.4,0.6-7.4,1.3-11.8,1.9v11
		h17.5c-0.3-5.6-0.6-12.3-1.1-20.1h5.7c0.1,7.3,0.4,14,0.8,20.1h25v5h-24.6c0.5,7.1,1.5,13.1,2.8,18.1c5-4.5,9.3-9.4,13.1-14.9
		l4.9,3.3c-4.7,6.4-10.1,12.1-16.1,17.1c1.3,3.2,2.8,5.9,4.6,7.9c2.4,2.7,4.4,4.1,6.1,4.1c1,0,1.6-0.8,2-2.2
		c0.6-2.4,1.3-6.2,1.9-11.6c1.9,0.9,3.6,1.5,5.3,1.9c-0.9,5.1-1.6,9-2.5,11.9c-1.1,3.6-3.3,5.5-6.6,5.6c-3.9,0-7.6-2.4-11.1-7.1
		c-1.5-2-2.9-4.4-4.1-7.1c-4.9,3.6-10.4,7-16.1,9.8C215.5,135.4,214.3,134,213.1,132.9z M236.9,81.2l3.5-3.6c4,3,8.1,6.4,12.3,10.2
		l-4.2,4.2C244.8,88.1,241,84.5,236.9,81.2z"/>
	<path d="M292.8,80.7c4.2,5.4,7.7,10.5,10.8,15.4c-1.7,1.2-3.3,2.2-4.7,3.1c-0.9-1.6-1.8-3.2-2.8-4.8c-11.1,0.9-20,1.6-26.7,2.2
		l-2.1-5.7c2-1.1,4.2-3.1,6.6-6.1c2.5-3.3,4.9-7,7.4-10.9l5.4,1.9c-3.8,5.5-7.7,10.6-11.9,15.4c6.9-0.4,13-0.9,18.5-1.3
		c-1.4-2.1-3-4.4-4.6-6.6L292.8,80.7z M276.3,141.1h-5.4v-40.2h27.6v32.3c0,4.9-2.3,7.4-6.9,7.4c-2,0-4.6,0.1-7.7,0.1
		c-0.2-1.4-0.5-3.1-1.1-5.1c2.9,0.2,5.1,0.3,6.9,0.3c2.2,0,3.3-1.2,3.3-3.4v-5.7h-17v14.4h0.3V141.1z M293.3,105.2h-17v6.5h17V105.2
		z M276.3,122.4h17v-6.6h-17V122.4z M305.2,108.2h5.4v11.3c6.4-2.4,13.2-5.6,20.2-9.4l3.1,4.7c-7.4,3.9-15.2,7.4-23.4,10.4v5.9
		c0,2.9,1.1,4.3,3.3,4.3H324c2.4,0,3.6-1.1,4.1-3.3c0.3-2,0.6-4.9,0.9-8.9c1.7,0.6,3.5,1.3,5.4,1.9c-0.3,4-0.8,7.1-1.2,9.1
		c-0.6,4-3.4,6-8.6,6h-11.4c-5.1,0-7.8-2.7-7.8-7.9v-24h-0.2V108.2z M305.3,75h5.4v11.7c6.2-2.5,12.4-5.5,18.6-9l3.1,4.7
		c-7.1,3.6-14.4,6.9-21.6,9.9v4c0,3,1.2,4.6,3.6,4.6h8.7c2.9,0,4.5-1.2,4.8-3.5c0.3-1.9,0.6-4.8,0.9-8.6c1.7,0.6,3.5,1.4,5.4,1.9
		c-0.3,3.6-0.8,6.6-1.2,8.9c-0.6,4-3.8,5.9-9.2,5.9h-10.2c-5.5,0-8.3-2.7-8.3-8.1L305.3,75L305.3,75z"/>
</g>
<g>
	<g>
		<path class="st0" d="M29.26,59.34c0-6.81,5.61-12.34,12.49-12.34s12.49,5.54,12.49,12.34c0,6.81-5.61,12.34-12.49,12.34
			S29.26,66.15,29.26,59.34"/>
		<g>
			<path class="st0" d="M61.24,147.51c0,0-16.2-43.5-21.51-57.72C34.42,75.61,55.29,70.75,60,82.57
				c5.31,13.32,21.51,57.72,21.51,57.72L61.24,147.51L61.24,147.51z"/>
			
				<linearGradient id="SVGID_1_" gradientUnits="userSpaceOnUse" x1="38.8722" y1="100.2873" x2="81.5127" y2="100.2873" gradientTransform="matrix(1 0 0 -1 0 212)">
				<stop  offset="0" style="stop-color:#888888"/>
				<stop  offset="0.5323" style="stop-color:#A5A5A5;stop-opacity:0"/>
				<stop  offset="1" style="stop-color:#A5A5A5"/>
			</linearGradient>
			<path class="st1" d="M61.24,147.51c0,0-16.2-43.5-21.51-57.72C34.42,75.61,55.29,70.75,60,82.57
				c5.31,13.32,21.51,57.72,21.51,57.72L61.24,147.51L61.24,147.51z"/>
			<g>
				<g>
					<defs>
						<path id="SVGID_2_" d="M61.24,147.51c0,0-16.2-43.5-21.51-57.72C34.42,75.61,55.29,70.75,60,82.57
							c5.31,13.32,21.51,57.72,21.51,57.72L61.24,147.51L61.24,147.51z"/>
					</defs>
					<clipPath id="SVGID_3_">
						<use xlink:href="#SVGID_2_"  style="overflow:visible;"/>
					</clipPath>
					<g class="st2">
						
							<radialGradient id="SVGID_4_" cx="129.4992" cy="531.04" r="19.5442" gradientTransform="matrix(0.9848 0.1736 1.3892 -7.8785 -812.5665 4265.5728)" gradientUnits="userSpaceOnUse">
							<stop  offset="0" style="stop-color:#A5A5A5;stop-opacity:0"/>
							<stop  offset="1" style="stop-color:#FFFFFF"/>
						</radialGradient>
						<path class="st3" d="M54.66,130.11L54.66,130.11c0,0-7.97-21.55-10.74-28.91c-5.31-14.18,11.93-30.67,16.12-18.59
							C67.67,104.57,54.66,130.11,54.66,130.11"/>
						
							<linearGradient id="SVGID_5_" gradientUnits="userSpaceOnUse" x1="9.0963" y1="101.2242" x2="15.8759" y2="101.2242" gradientTransform="matrix(1 0 0 -1 0 212)">
							<stop  offset="0" style="stop-color:#888888"/>
							<stop  offset="0.5323" style="stop-color:#A5A5A5;stop-opacity:0"/>
							<stop  offset="1" style="stop-color:#A5A5A5"/>
						</linearGradient>
						<rect x="9.1" y="104.23" class="st4" width="6.77" height="13.09"/>
					</g>
				</g>
			</g>
			
				<linearGradient id="SVGID_6_" gradientUnits="userSpaceOnUse" x1="38.8722" y1="100.2873" x2="81.5127" y2="100.2873" gradientTransform="matrix(1 0 0 -1 0 212)">
				<stop  offset="0" style="stop-color:#888888"/>
				<stop  offset="0.5323" style="stop-color:#A5A5A5;stop-opacity:0"/>
				<stop  offset="1" style="stop-color:#A5A5A5"/>
			</linearGradient>
			<path class="st5" d="M61.24,147.51c0,0-16.2-43.5-21.51-57.72C34.42,75.61,55.29,70.75,60,82.57
				c5.31,13.32,21.51,57.72,21.51,57.72L61.24,147.51L61.24,147.51z"/>
		</g>
		<path class="st6" d="M29.26,59.34c0-6.81,5.61-12.34,12.49-12.34s12.49,5.54,12.49,12.34c0,6.81-5.61,12.34-12.49,12.34
			S29.26,66.15,29.26,59.34"/>
		<path class="st6" d="M51.06,56.5c0,4.97-4,8.98-8.98,8.98c-4.94,0-8.98-4-8.98-8.98s4-8.98,8.98-8.98
			C47.03,47.52,51.06,51.56,51.06,56.5L51.06,56.5z"/>
		<path class="st6" d="M29.26,59.34c0-6.81,5.61-12.34,12.49-12.34s12.49,5.54,12.49,12.34c0,6.81-5.61,12.34-12.49,12.34
			S29.26,66.15,29.26,59.34"/>
		<path class="st6" d="M51.06,56.5c0,4.97-4,8.98-8.98,8.98c-4.94,0-8.98-4-8.98-8.98s4-8.98,8.98-8.98
			C47.03,47.52,51.06,51.56,51.06,56.5L51.06,56.5z"/>
		<path class="st6" d="M51.06,56.5c0,4.97-4,8.98-8.98,8.98c-4.94,0-8.98-4-8.98-8.98s4-8.98,8.98-8.98
			C47.03,47.52,51.06,51.56,51.06,56.5L51.06,56.5z"/>
		<path class="st6" d="M51.96,58.75c0,5.69-4.6,10.32-10.32,10.32s-10.32-4.64-10.32-10.32s4.6-10.32,10.32-10.32
			S51.96,53.06,51.96,58.75L51.96,58.75z"/>
		<path class="st6" d="M51.06,56.5c0,4.97-4,8.98-8.98,8.98c-4.94,0-8.98-4-8.98-8.98s4-8.98,8.98-8.98
			C47.03,47.52,51.06,51.56,51.06,56.5L51.06,56.5z"/>
		<path class="st6" d="M48.37,52.91c0,2.99-2.39,5.39-5.39,5.39c-2.96,0-5.39-2.39-5.39-5.39c0-2.99,2.39-5.39,5.39-5.39
			C45.94,47.52,48.37,49.96,48.37,52.91L48.37,52.91z"/>
		<path class="st6" d="M29.26,59.34c0-6.81,5.61-12.34,12.49-12.34s12.49,5.54,12.49,12.34c0,6.81-5.61,12.34-12.49,12.34
			S29.26,66.15,29.26,59.34"/>
		<path class="st6" d="M48.37,52.91c0,2.99-2.39,5.39-5.39,5.39c-2.96,0-5.39-2.39-5.39-5.39c0-2.99,2.39-5.39,5.39-5.39
			C45.94,47.52,48.37,49.96,48.37,52.91L48.37,52.91z"/>
		<path class="st6" d="M48.37,52.91c0,2.99-2.39,5.39-5.39,5.39c-2.96,0-5.39-2.39-5.39-5.39c0-2.99,2.39-5.39,5.39-5.39
			C45.94,47.52,48.37,49.96,48.37,52.91L48.37,52.91z"/>
		<path class="st6" d="M51.96,58.75c0,5.69-4.6,10.32-10.32,10.32s-10.32-4.64-10.32-10.32s4.6-10.32,10.32-10.32
			S51.96,53.06,51.96,58.75L51.96,58.75z"/>
		<path class="st6" d="M48.37,52.91c0,2.99-2.39,5.39-5.39,5.39c-2.96,0-5.39-2.39-5.39-5.39c0-2.99,2.39-5.39,5.39-5.39
			C45.94,47.52,48.37,49.96,48.37,52.91L48.37,52.91z"/>
		<path class="st6" d="M51.06,56.5c0,4.97-4,8.98-8.98,8.98c-4.94,0-8.98-4-8.98-8.98s4-8.98,8.98-8.98
			C47.03,47.52,51.06,51.56,51.06,56.5L51.06,56.5z"/>
		<path class="st6" d="M48.37,52.91c0,2.99-2.39,5.39-5.39,5.39c-2.96,0-5.39-2.39-5.39-5.39c0-2.99,2.39-5.39,5.39-5.39
			C45.94,47.52,48.37,49.96,48.37,52.91L48.37,52.91z"/>
		<path class="st6" d="M51.06,56.5c0,4.97-4,8.98-8.98,8.98c-4.94,0-8.98-4-8.98-8.98s4-8.98,8.98-8.98
			C47.03,47.52,51.06,51.56,51.06,56.5L51.06,56.5z"/>
		<path class="st6" d="M48.37,52.91c0,2.99-2.39,5.39-5.39,5.39c-2.96,0-5.39-2.39-5.39-5.39c0-2.99,2.39-5.39,5.39-5.39
			C45.94,47.52,48.37,49.96,48.37,52.91L48.37,52.91z"/>
		<path class="st6" d="M51.06,56.5c0,4.97-4,8.98-8.98,8.98c-4.94,0-8.98-4-8.98-8.98s4-8.98,8.98-8.98
			C47.03,47.52,51.06,51.56,51.06,56.5L51.06,56.5z"/>
		<path class="st6" d="M48.37,52.91c0,2.99-2.39,5.39-5.39,5.39c-2.96,0-5.39-2.39-5.39-5.39c0-2.99,2.39-5.39,5.39-5.39
			C45.94,47.52,48.37,49.96,48.37,52.91L48.37,52.91z"/>
		<path class="st6" d="M48.37,52.91c0,2.99-2.39,5.39-5.39,5.39c-2.96,0-5.39-2.39-5.39-5.39c0-2.99,2.39-5.39,5.39-5.39
			C45.94,47.52,48.37,49.96,48.37,52.91L48.37,52.91z"/>
		<path class="st7" d="M82.6,141.82c-5.95,17.62-28.47,11-22.29-7.33c5.61-16.68,20.91-60.9,24.65-71.44
			c3.18-8.9,6.28-15.04,12.57-15.3c0.04,0,0.07,0,0.11,0c6.55,0,11.52,9.91,14.33,17.54c2.39,6.47,11.26,31.46,12.34,34.9
			c1.08,3.44,3.55,4.94,5.27,0.41c2.96-7.86,12.31-33.22,15.71-42.34c5.39-14.7,26.52-10.55,20.27,7.29
			c-6.28,17.8-18.67,54.01-23.49,67.48c-2.69,7.52-7.86,18.81-14.81,18.81c-0.07,0-0.11,0-0.19,0c-6.77,0-11.82-10.47-14.74-17.92
			c-3.63-9.2-12.34-37.37-14.21-42.34C93,106.85,86.56,130.04,82.6,141.82L82.6,141.82z"/>
		<g>
			<g>
				<defs>
					<path id="SVGID_7_" d="M82.6,141.82c-5.95,17.62-28.47,11-22.29-7.33c5.61-16.68,20.91-60.9,24.65-71.44
						c3.18-8.9,7.67-15.3,12.57-15.3c0.04,0,0.07,0,0.11,0c6.55,0,11.52,9.91,14.33,17.54c2.39,6.47,11.26,31.46,12.34,34.9
						c1.08,3.44,3.55,4.94,5.27,0.41c2.96-7.86,12.31-33.22,15.71-42.34c5.39-14.7,26.52-10.55,20.27,7.29
						c-6.28,17.8-18.67,54.01-23.49,67.48c-2.69,7.52-7.86,18.81-14.81,18.81c-0.07,0-0.11,0-0.19,0
						c-6.77,0-11.82-10.47-14.74-17.92c-3.63-9.2-12.34-37.37-14.21-42.34C93,106.85,86.56,130.04,82.6,141.82L82.6,141.82z"/>
				</defs>
				<clipPath id="SVGID_8_">
					<use xlink:href="#SVGID_7_"  style="overflow:visible;"/>
				</clipPath>
				
					<linearGradient id="SVGID_9_" gradientUnits="userSpaceOnUse" x1="161.4301" y1="155.9754" x2="124.1375" y2="91.3827" gradientTransform="matrix(1 0 0 -1 0 212)">
					<stop  offset="0" style="stop-color:#F46C64"/>
					<stop  offset="0.5" style="stop-color:#F74437;stop-opacity:0"/>
					<stop  offset="1" style="stop-color:#B0130E"/>
				</linearGradient>
				<path class="st8" d="M146.64,120.24c-1.76,6.02-7.14,7.59-11.86,6.32c-2.84-0.79-5.09-4.08-6.06-7.59
					c-2.21-7.82-8.53-30.75-8.53-30.75s3.52,10.25,4.6,12.79c1.27,2.92,3.55,2.99,4.79-0.41c3.85-10.4,9.54-26.22,12.38-33.89
					c5.8-15.78,27.61-13.17,23.98-2.09C160.59,80.74,146.64,120.24,146.64,120.24z"/>
			</g>
		</g>
		<g>
			<g>
				<defs>
					<path id="SVGID_10_" d="M82.6,141.82c-5.95,17.62-28.47,11-22.29-7.33c5.61-16.68,20.91-60.9,24.65-71.44
						c3.18-8.9,6.43-15.3,12.64-15.3c6.58,0,11.75,9.84,14.33,17.54c2.58,7.59,11.07,31.53,12.34,34.9c1.46,3.89,3.55,4.6,5.27,0.41
						c3.14-7.78,12.31-33.22,15.71-42.34c5.39-14.7,26.52-10.55,20.27,7.29c-6.28,17.8-18.67,54.01-23.49,67.48
						c-2.69,7.52-7.86,18.81-14.81,18.81c-0.07,0-0.11,0-0.19,0c-6.77,0-11.82-10.47-14.74-17.92c-3.63-9.2-12.34-37.37-14.21-42.34
						C93,106.85,86.56,130.04,82.6,141.82L82.6,141.82z"/>
				</defs>
				<clipPath id="SVGID_11_">
					<use xlink:href="#SVGID_10_"  style="overflow:visible;"/>
				</clipPath>
				
					<linearGradient id="SVGID_12_" gradientUnits="userSpaceOnUse" x1="81.7878" y1="145.6569" x2="110.6433" y2="135.1543" gradientTransform="matrix(1 0 0 -1 0 212)">
					<stop  offset="0" style="stop-color:#FFFFFF;stop-opacity:0.5"/>
					<stop  offset="1" style="stop-color:#FFFFFF;stop-opacity:0"/>
				</linearGradient>
				<path class="st9" d="M97.3,46.93c-6.13,0-10.96,6.4-14.33,16.2c-1.16,3.33-2.99,13.95-2.99,13.95s2.96-5.72,9.46-4.04
					c4.49,1.16,6.25,7.22,7.67,12.08c1.57,5.42,4.08,14.03,4.08,14.03l12.23-29.92c0,0-0.15-1.65-1.01-4.41
					C111.32,61.18,107.58,46.93,97.3,46.93c-0.04,0,0.22,0.82,0.19,0.82"/>
			</g>
		</g>
		<g>
			<g>
				<defs>
					<path id="SVGID_13_" d="M29.26,59.34c0-6.81,5.61-12.34,12.49-12.34s12.49,5.54,12.49,12.34c0,6.81-5.61,12.34-12.49,12.34
						S29.26,66.15,29.26,59.34"/>
				</defs>
				<clipPath id="SVGID_14_">
					<use xlink:href="#SVGID_13_"  style="overflow:visible;"/>
				</clipPath>
				
					<radialGradient id="SVGID_15_" cx="42.7115" cy="156.4342" r="10.6852" gradientTransform="matrix(1 0 0 -1 0 212)" gradientUnits="userSpaceOnUse">
					<stop  offset="0" style="stop-color:#C7C7C7"/>
					<stop  offset="1" style="stop-color:#A5A5A5"/>
				</radialGradient>
				<path class="st10" d="M53.38,55.57c0,5.91-4.79,10.7-10.7,10.7s-10.7-4.79-10.7-10.7s4.79-10.7,10.7-10.7
					C48.6,44.87,53.38,49.66,53.38,55.57L53.38,55.57z"/>
			</g>
		</g>
		<g>
			<g>
				<defs>
					<path id="SVGID_16_" d="M30.16,56.16c0-1.72,0.15-3.37,0.34-4.49c0.71-4.45-3.33,5.72-1.68,11.67
						c1.83,6.62,7.59,10.21,15.07,9.43c6.81-0.75,14.51-6.43,6.06-4.34c-1.83,0.49-4.94,0.71-6.7,0.71
						C36.03,69.14,30.16,63.31,30.16,56.16"/>
				</defs>
				<clipPath id="SVGID_17_">
					<use xlink:href="#SVGID_16_"  style="overflow:visible;"/>
				</clipPath>
				
					<radialGradient id="SVGID_18_" cx="41.751" cy="152.6563" r="11.016" gradientTransform="matrix(1 0 0 -1 0 212)" gradientUnits="userSpaceOnUse">
					<stop  offset="0" style="stop-color:#C7C7C7"/>
					<stop  offset="1" style="stop-color:#A5A5A5"/>
				</radialGradient>
				<path class="st11" d="M30.68,59.34c0-6.06,4.97-10.96,11.07-10.96s11.07,4.9,11.07,10.96S47.85,70.3,41.75,70.3
					C35.62,70.27,30.68,65.37,30.68,59.34"/>
			</g>
			<g>
				<defs>
					<path id="SVGID_19_" d="M30.16,56.16c0-1.72,0.15-3.37,0.34-4.49c0.71-4.45-3.33,5.72-1.68,11.67
						c1.83,6.62,7.59,10.21,15.07,9.43c6.81-0.75,14.51-6.43,6.06-4.34c-1.83,0.49-4.94,0.71-6.7,0.71
						C36.03,69.14,30.16,63.31,30.16,56.16"/>
				</defs>
				<clipPath id="SVGID_20_">
					<use xlink:href="#SVGID_19_"  style="overflow:visible;"/>
				</clipPath>
				<path class="st12" d="M53.35,59.34c0,6.32-5.2,11.45-11.6,11.45s-11.6-5.12-11.6-11.45s5.2-11.45,11.6-11.45
					C48.15,47.86,53.35,52.98,53.35,59.34L53.35,59.34z"/>
			</g>
			<g>
				<defs>
					<path id="SVGID_21_" d="M30.16,56.16c0-1.72,0.15-3.37,0.34-4.49c0.71-4.45-3.33,5.72-1.68,11.67
						c1.83,6.62,7.59,10.21,15.07,9.43c6.81-0.75,14.51-6.43,6.06-4.34c-1.83,0.49-4.94,0.71-6.7,0.71
						C36.03,69.14,30.16,63.31,30.16,56.16"/>
				</defs>
				<clipPath id="SVGID_22_">
					<use xlink:href="#SVGID_21_"  style="overflow:visible;"/>
				</clipPath>
				<path class="st13" d="M53.35,59.34c0,6.32-5.2,11.45-11.6,11.45s-11.6-5.12-11.6-11.45s5.2-11.45,11.6-11.45
					C48.15,47.86,53.35,52.98,53.35,59.34L53.35,59.34z"/>
			</g>
			<g>
				<defs>
					<path id="SVGID_23_" d="M30.16,56.16c0-1.72,0.15-3.37,0.34-4.49c0.71-4.45-3.33,5.72-1.68,11.67
						c1.83,6.62,7.59,10.21,15.07,9.43c6.81-0.75,14.51-6.43,6.06-4.34c-1.83,0.49-4.94,0.71-6.7,0.71
						C36.03,69.14,30.16,63.31,30.16,56.16"/>
				</defs>
				<clipPath id="SVGID_24_">
					<use xlink:href="#SVGID_23_"  style="overflow:visible;"/>
				</clipPath>
				<path class="st14" d="M53.35,59.34c0,6.32-5.2,11.45-11.6,11.45s-11.6-5.12-11.6-11.45s5.2-11.45,11.6-11.45
					C48.15,47.86,53.35,52.98,53.35,59.34L53.35,59.34z"/>
			</g>
			<g>
				<defs>
					<path id="SVGID_25_" d="M30.16,56.16c0-1.72,0.15-3.37,0.34-4.49c0.71-4.45-3.33,5.72-1.68,11.67
						c1.83,6.62,7.59,10.21,15.07,9.43c6.81-0.75,14.51-6.43,6.06-4.34c-1.83,0.49-4.94,0.71-6.7,0.71
						C36.03,69.14,30.16,63.31,30.16,56.16"/>
				</defs>
				<clipPath id="SVGID_26_">
					<use xlink:href="#SVGID_25_"  style="overflow:visible;"/>
				</clipPath>
				<path class="st15" d="M53.35,59.34c0,6.32-5.2,11.45-11.6,11.45s-11.6-5.12-11.6-11.45s5.2-11.45,11.6-11.45
					C48.15,47.86,53.35,52.98,53.35,59.34L53.35,59.34z"/>
			</g>
		</g>
		
			<linearGradient id="SVGID_27_" gradientUnits="userSpaceOnUse" x1="142.8194" y1="76.5727" x2="112.9324" y2="87.4509" gradientTransform="matrix(1 0 0 -1 0 212)">
			<stop  offset="0" style="stop-color:#FFFFFF;stop-opacity:0.5"/>
			<stop  offset="1" style="stop-color:#FFFFFF;stop-opacity:0"/>
		</linearGradient>
		<path class="st16" d="M146.82,119.6c-0.04,0.15-0.22,1.27-1.01,2.54c-0.11,0.22-0.26,0.41-0.37,0.6l-0.04,0.04
			c-2.36,3.85-6.73,4.83-10.7,3.74c-2.84-0.79-5.09-4.08-6.06-7.59c-0.9-3.18-2.47-8.79-4-14.4c-0.11-0.3-0.19-0.45-0.19-0.45
			l-14.06,27.46c0,0,0.52,1.87,0.79,2.51c3.52,9.13,9.8,20.12,15.6,19.79c6.88-0.37,13.13-10.32,16.05-18.4
			C145.74,127.46,146.78,119.98,146.82,119.6C146.86,119.6,146.86,119.6,146.82,119.6z"/>
		<g>
			<g>
				<defs>
					<path id="SVGID_28_" d="M82.6,141.82c-5.95,17.62-28.47,11-22.29-7.33c5.61-16.68,20.91-60.9,24.65-71.44
						c3.18-8.9,6.28-15.04,12.57-15.3c0.04,0,0.07,0,0.11,0c6.55,0,11.52,9.91,14.33,17.54c2.39,6.47,11.26,31.46,12.34,34.9
						c1.08,3.44,3.55,4.94,5.27,0.41c2.96-7.86,12.31-33.22,15.71-42.34c5.39-14.7,26.52-10.55,20.27,7.29
						c-6.28,17.8-18.67,54.01-23.49,67.48c-2.69,7.52-7.86,18.81-14.81,18.81c-0.07,0-0.11,0-0.19,0
						c-6.77,0-11.82-10.47-14.74-17.92c-3.63-9.2-12.34-37.37-14.21-42.34C93,106.85,86.56,130.04,82.6,141.82L82.6,141.82z"/>
				</defs>
				<clipPath id="SVGID_29_">
					<use xlink:href="#SVGID_28_"  style="overflow:visible;"/>
				</clipPath>
				
					<linearGradient id="SVGID_30_" gradientUnits="userSpaceOnUse" x1="63.8097" y1="69.5498" x2="100.374" y2="132.8814" gradientTransform="matrix(1 0 0 -1 0 212)">
					<stop  offset="0" style="stop-color:#F46C64"/>
					<stop  offset="0.5" style="stop-color:#F74437;stop-opacity:0"/>
					<stop  offset="1" style="stop-color:#B0130E"/>
				</linearGradient>
				<path class="st17" d="M78.89,79.84c2.99-9.58,13.5-9.16,16.16-0.9c2.28,7.07,9.09,30.78,9.09,30.78l-6.06-18.18
					c0,0-9.61,28.09-12.9,38.56c-5.05,16.12-28.65,16.08-24.99,4.97C65.54,118.86,75.9,89.42,78.89,79.84L78.89,79.84z"/>
			</g>
		</g>
	</g>
</g>
</svg>
