<?xml version="1.0" encoding="utf-8"?>
<!-- Generator: Adobe Illustrator 24.3.0, SVG Export Plug-In . SVG Version: 6.00 Build 0)  -->
<svg version="1.1" id="图层_1" xmlns="http://www.w3.org/2000/svg" xmlns:xlink="http://www.w3.org/1999/xlink" x="0px" y="0px"
	 viewBox="0 0 400 300" style="enable-background:new 0 0 400 300;" xml:space="preserve">
<style type="text/css">
	.st0{clip-path:url(#SVGID_2_);}
	.st1{fill:#FFFFFF;}
	.st2{opacity:0.5;fill:#E3EEFF;enable-background:new    ;}
	.st3{opacity:0.4;fill:#AACEF2;enable-background:new    ;}
	.st4{fill:#353B6E;}
	.st5{fill-rule:evenodd;clip-rule:evenodd;fill:#FFCA21;}
	.st6{fill:#272E56;}
	.st7{fill:#FFD5C0;}
	.st8{fill:url(#路径_1078_1_);}
	.st9{fill:#46B28B;}
	.st10{fill:url(#路径_1086_1_);}
	.st11{fill:#423565;}
	.st12{fill-rule:evenodd;clip-rule:evenodd;fill:#404884;}
	.st13{fill-rule:evenodd;clip-rule:evenodd;fill:#AACEF2;}
	.st14{fill:#404884;}
	.st15{clip-path:url(#SVGID_4_);}
	.st16{clip-path:url(#SVGID_6_);}
	.st17{clip-path:url(#SVGID_8_);}
	.st18{fill:#FFCA21;}
	.st19{clip-path:url(#SVGID_10_);}
	.st20{clip-path:url(#SVGID_12_);}
	.st21{fill:#FFE184;}
	.st22{clip-path:url(#SVGID_14_);}
	.st23{clip-path:url(#SVGID_16_);}
	.st24{fill:#F1BF19;}
	.st25{clip-path:url(#SVGID_18_);}
	.st26{clip-path:url(#SVGID_20_);}
	.st27{fill:#FFD757;}
	.st28{clip-path:url(#SVGID_22_);}
	.st29{clip-path:url(#SVGID_24_);}
	.st30{clip-path:url(#SVGID_26_);}
	.st31{clip-path:url(#SVGID_28_);}
	.st32{clip-path:url(#SVGID_30_);}
	.st33{clip-path:url(#SVGID_32_);}
	.st34{fill:#66AF6F;}
	.st35{fill:#93DEA8;}
	.st36{fill:#AACEF2;}
	.st37{opacity:0.685;fill:#7C6200;enable-background:new    ;}
</style>
<g>
	<defs>
		<rect id="SVGID_1_" x="42.4" y="36.9" width="315.2" height="226.2"/>
	</defs>
	<clipPath id="SVGID_2_">
		<use xlink:href="#SVGID_1_"  style="overflow:visible;"/>
	</clipPath>
	<g id="pic_signin" class="st0">
		<rect id="矩形_9264" x="42.4" y="36.9" class="st1" width="315.2" height="226.2"/>
		<g id="Working" transform="translate(43.727 18.484)">
			<path id="Background" class="st2" d="M68.8,139.9c56-22.2,54.3-17.3,64.9-24.9c24.8-17.9,17.8-34.7,48.7-63.1
				c6.2-5.7,38.5-36.6,51.5-28.6c14.7,9-12.3,56.9,8.4,77.2c14.9,14.6,38-1.1,51.8,13.4c15.5,16.4,8.3,59.5-15.4,77.5
				c-17.2,13.1-32.2,4.6-65,13.2c-33.7,8.8-36.6,25.9-60.6,32c-31.6,8.1-38.5-20.5-84.4-22.5c-26.7-1.1-40.1,6.7-48.8-2.8
				c-9.1-10-5.5-30.8,3-44.1C29.9,156.5,39.4,151.6,68.8,139.9z"/>
			<ellipse id="椭圆_1645" class="st3" cx="128" cy="207.7" rx="81.4" ry="15.1"/>
			<g id="Chair" transform="translate(13.567 25.062)">
				<path id="路径_41914" class="st4" d="M129.4,111.7c12.1,0,17,21.8,16,65.5c0,0.9-0.8,1.7-1.7,1.7c-0.9,0-1.7-0.8-1.7-1.7
					c0,0,0,0,0-0.1c1-41.4-3.6-62.1-12.6-62.1c-5,0-8.9,6.3-11.5,18.9l-2.8-3C118.2,118.1,122.9,111.7,129.4,111.7z"/>
				<path id="路径_41917" class="st4" d="M99.6,114.8v3.8c-7.5,3.6-12.2,23.3-13.2,59.1l0,0l-0.1,2.5l-0.1,2.6
					c0,1-0.8,1.8-1.8,1.8c-1,0-1.8-0.8-1.8-1.8c0,0,0-0.1,0-0.1C83.6,140.5,88.8,117.9,99.6,114.8z"/>
				<path id="路径_41918" class="st4" d="M112.3,137.4c3.5,2.1,2.2,4.4,0,3.8s-8-12-9.1,23.7l0,0l-0.1,2.5l-0.1,2.6
					c0,1-0.8,1.8-1.8,1.8c-1,0-1.8-0.8-1.8-1.8c0,0,0-0.1,0-0.1C100.4,127.7,107.1,135.3,112.3,137.4z"/>
				<path id="路径_41911" class="st5" d="M88.1,59c26.2,0,10.9,29.8,39.5,40.6s17.2,33.8,6.7,39.8c-10.5,6-57.9,17.1-62.3-25.8
					C69.9,87.2,75.6,59.5,88.1,59z"/>
			</g>
			<g id="Person" transform="translate(-15.047 -3.471)">
				<g id="组_590" transform="translate(70.895 25.175)">
					<path id="路径_1076" class="st6" d="M105.5,98.1c0,0,9.3-8.7,9.4-13.8l-8.5-1.8C106.4,82.6,103.7,92.8,105.5,98.1z"/>
					<path id="路径_1077" class="st7" d="M115.4,87.2c1.7,2.7,8.4,13.8,12.6,17.4c4.1,3.6,11.7,4.9,9.3,11.7
						c-2.4,6.8-10.7-3.9-12.9-5.8s-17.3-9.9-21-17.7c-1.1-2.3-1.6-4.8-1.7-7.4c-0.8-7.1,3.4-12.3,8.2-7.6
						C109.9,77.8,113.7,84.5,115.4,87.2z"/>
					
						<linearGradient id="路径_1078_1_" gradientUnits="userSpaceOnUse" x1="-183.6255" y1="518.1049" x2="-182.6391" y2="517.5167" gradientTransform="matrix(14.5293 0 0 -27.0719 2765.8596 14096.1045)">
						<stop  offset="0" style="stop-color:#47B48D"/>
						<stop  offset="1" style="stop-color:#4FC9B3"/>
					</linearGradient>
					<path id="路径_1078" class="st8" d="M102.9,57.4c0,0,2.7-1.1,5.1,6.8c2.4,7.9,6.8,20.2,6.8,20.2s-8.9,5-9.4,13.7
						c0,0-8.9-13.5-11.1-19.2S91.1,55.7,102.9,57.4z"/>
				</g>
				<g id="组_32285" transform="translate(27.834 50.107)">
					<g id="组_32330" transform="matrix(0.966, 0.259, -0.259, 0.966, 14.379, 0)">
						<path id="路径_41953" class="st7" d="M152.5,119.4l6.6,0l-1.2,8.6l-6.1,0L152.5,119.4z"/>
						<path id="路径_41952" class="st4" d="M113.9,61.3c0,0,15.8,0.5,26.4,1.3c10.6,0.8,12.1,0.9,14.7,1.5c2.6,0.6,7.1,2.5,8,7.6
							c0.6,6.1,0.8,12.2,0.8,18.3l-0.8,33.2l-11.3-1.6c0,0-3.1-17.2-4.1-28.2s0.2-13.3,0.2-13.3l-10.5,1.3c0,0-16,1.5-22.8,0.8
							c-6.7-0.7-9.1-0.7-14.3-4.6s-6.4-10.8-6.4-10.8L113.9,61.3z"/>
						<path id="路径_41954" class="st4" d="M151.7,124.8c2.7,0.1,5.3,0.3,8,0.7c2,0.5,3.9,1.3,5.6,2.4c0.9,0.5,1.6,1.4,2,2.3
							c0.3,0.5,0.3,1.1,0.2,1.6l-16.4-1.4c0,0-0.7,0-0.7-0.9c0-0.9,0.2-1.9,0.6-2.8C151.2,126,151.4,125.4,151.7,124.8z"/>
						<path id="路径_41957" class="st7" d="M186,113.1l3.2-4.3l6.3,5.1l-3.2,4.3L186,113.1z"/>
						<path id="路径_41956" class="st4" d="M191.2,117.7c0,0,4.5-5.6,6.1-6.4c1.4-0.9,2.9-1.6,4.5-2c1-0.3,2.1-0.2,3.2,0.1
							c0.7,0.2,1.2,0.6,1.6,1.2l-4.5,4.9l-6,6.7c0,0-0.4,0.6-1.3-0.1c-0.9-0.7-1.6-1.5-2.3-2.4C191.9,118.8,191.2,117.7,191.2,117.7
							z"/>
						<path id="路径_41955" class="st4" d="M145.9,87.1l-17.6-7.8l-10.8-17.6l17.4-5.7l4,4.7l30,24.3l23,25.3l-5.5,6.9
							c0,0-14.4-11-20.9-16.9L145.9,87.1z"/>
					</g>
				</g>
				<path id="联合_1" class="st9" d="M126.9,80.5c0.3-1.4,1.3-2.5,2.7-2.8c7-1.6,21.9-8.1,30.6-3.2c7.3,4.1,14.5,7.9,16,9.2
					c0.3,0.3,0.4,0.7,0.3,1.1c-7.2,16.8-17.7,51.1-17.7,51.1c-4.9-0.1-41.5,4.1-41.5,4.1C114.3,129.5,118.7,111.9,126.9,80.5z"/>
				<g id="组_593" transform="translate(38.294 22.074)">
					<path id="路径_1084" class="st6" d="M76.4,96.9c0,0,13.1-14.9,18-1C94.5,95.9,83.5,100.3,76.4,96.9"/>
					<path id="路径_1085" class="st7" d="M90.6,86.1c0,0,2.8,9,5.6,12.4c2.7,3.4,16.6,6.5,16.6,6.5s9.6-0.7,8.7,5.6
						c-0.9,6.3-13.9,2.8-13.9,2.8s-20.1-1.1-26.2-11.2c-1.8-3-1.5-5.5-2-8c-1.5-7,5.9-12.4,11.1-8.2L90.6,86.1z"/>
					
						<linearGradient id="路径_1086_1_" gradientUnits="userSpaceOnUse" x1="-151.9553" y1="521.437" x2="-153.2645" y2="520.4747" gradientTransform="matrix(15.7056 0 0 -27.3177 2485.6621 14311.2881)">
						<stop  offset="0" style="stop-color:#47B48D"/>
						<stop  offset="1" style="stop-color:#4FC9B3"/>
					</linearGradient>
					<path id="路径_1086" class="st10" d="M96.6,57c2.1,1.6,2.7,4.2,3.2,6.7c0.7,3.8,0.5,9.4-5.4,32.2c0,0-13.1-1.6-18,1
						c0,0,1.5-17.8,6.6-29.3c1.6-3.6,3-7.5,5.6-10.6c0.7-0.8,1.8-1.3,2.9-1.3C93.3,55.7,95.1,56.1,96.6,57z"/>
				</g>
				<g id="组_594" transform="translate(60.41 0)">
					<path id="路径_1087" class="st11" d="M108.7,54.5L108.7,54.5c0.5-0.6,0.9-1.2,1.2-1.8c0.4-0.6,0.7-1.3,0.8-2
						c0.1-1.1-0.1-2.2-0.5-3.3c-0.4-1-1.1-1.8-2.1-2.2c-2.8-1.1-6-0.8-8.6,0.6c-2.9,1.4-9.3,1-8.8,8.5c0.5,7.5,6.4,8.1,5.9,10.5
						l4.7-4.1c1.8-1.5,3.6-2.9,5.4-4.4C107.3,55.7,108,55.2,108.7,54.5z"/>
					<path id="路径_1088" class="st7" d="M108.9,53.2c0,0,4.7,14.4-4,13.6c-3.1-0.2-5.8-1.9-7.3-4.6c0,0-1.9,0.6-2.1-3.2
						c-0.1-2.3,2.7-3.5,2.8,0.1c0,0,2,0.6,2.4-2.4c0.4-3,2-2.9,3.7-2.4C106.1,54.8,108.6,54.1,108.9,53.2z"/>
					<path id="路径_1089" class="st7" d="M96.9,61.8c-1,3.4-2.3,6.7-4,9.9c-1.5,0.6-3.1,1-4.7,1.2c-1.8,0,1,10.8,12.2,9.7
						c6.2-0.7,2.4-6.5,2.4-6.5s-1.6-1.2-1.4-1.8c0.1-0.5,2.7-8.3,2.7-8.3S104.1,59.1,96.9,61.8z"/>
				</g>
				<g id="组_32329" transform="translate(-4 60.507)">
					<path id="路径_41929" class="st12" d="M80,79.1v69.1h45.6V79.1h3.8V153h-2.9v0.1H78.1V153h-1.9V79.1H80z"/>
					<path id="路径_41951" class="st12" d="M231.8,79.2v69.1h45.6V79.2h3.8V153h-2.9v0.1h-48.5V153H228V79.2H231.8z"/>
					<path id="路径_41926" class="st13" d="M109.3,75.3h201c0.9-0.1,1.7,0.6,1.8,1.5v4.7c-0.1,0.9-0.9,1.6-1.8,1.5h-201
						c-0.9,0.1-1.7-0.6-1.8-1.5v-4.7C107.6,75.9,108.4,75.2,109.3,75.3z"/>
					<path id="路径_41923" class="st14" d="M54.9,83h57.5v-7.7H54.9V83z"/>
				</g>
			</g>
			<g id="组_32328" transform="translate(65.334 11.736)">
				<g>
					<defs>
						<rect id="SVGID_3_" x="97.8" y="52.2" width="96.9" height="69.2"/>
					</defs>
					<clipPath id="SVGID_4_">
						<use xlink:href="#SVGID_3_"  style="overflow:visible;"/>
					</clipPath>
					<g id="组_32327" transform="translate(0 0)" class="st15">
						<g>
							<defs>
								<path id="SVGID_5_" d="M113.7,53.1h77.1c2.2,0,4.1,1.8,4.1,4.1c0,0.3,0,0.7-0.1,1l-11.4,43.7c-0.5,1.8-2.1,3-3.9,3h-77.1
									c-2.2,0-4.1-1.8-4.1-4.1c0-0.3,0-0.7,0.1-1l11.4-43.7C110.3,54.3,111.9,53.1,113.7,53.1z"/>
							</defs>
							<clipPath id="SVGID_6_">
								<use xlink:href="#SVGID_5_"  style="overflow:visible;"/>
							</clipPath>
							<g id="组_32314" transform="translate(0.285 0.567)" class="st16">
								<g>
									<defs>
										<rect id="SVGID_7_" x="97.5" y="51.5" width="97.1" height="69.4"/>
									</defs>
									<clipPath id="SVGID_8_">
										<use xlink:href="#SVGID_7_"  style="overflow:visible;"/>
									</clipPath>
									<g id="组_32313" transform="translate(-0.285 -0.683)" class="st17">
										<path id="路径_41930" class="st18" d="M90.5,45.5h112.1v67.3H90.5V45.5z"/>
									</g>
								</g>
							</g>
						</g>
						<g>
							<defs>
								<path id="SVGID_9_" d="M121.2,53.1h69.6c2.2,0,4.1,1.8,4.1,4.1l0,0c0,0.3,0,0.7-0.1,1l-11.4,43.7c-0.5,1.8-2.1,3-3.9,3
									h-69.6c-2.2,0-4.1-1.8-4.1-4.1c0-0.3,0-0.7,0.1-1l11.4-43.7C117.8,54.3,119.4,53.1,121.2,53.1z"/>
							</defs>
							<clipPath id="SVGID_10_">
								<use xlink:href="#SVGID_9_"  style="overflow:visible;"/>
							</clipPath>
							<g id="组_32316" transform="translate(5.262 0.567)" class="st19">
								<g>
									<defs>
										<rect id="SVGID_11_" x="92.6" y="51.5" width="97.1" height="69.4"/>
									</defs>
									<clipPath id="SVGID_12_">
										<use xlink:href="#SVGID_11_"  style="overflow:visible;"/>
									</clipPath>
									<g id="组_32315" transform="translate(-5.262 -0.683)" class="st20">
										<path id="路径_41933" class="st21" d="M98,45.5h104.6v67.3H98V45.5z"/>
									</g>
								</g>
							</g>
						</g>
						<g>
							<defs>
								<polygon id="SVGID_13_" points="142.2,81.7 129.2,104.9 171.4,104.9 160.1,84 								"/>
							</defs>
							<clipPath id="SVGID_14_">
								<use xlink:href="#SVGID_13_"  style="overflow:visible;"/>
							</clipPath>
							<g id="组_32318" transform="translate(20.837 19.521)" class="st22">
								<g>
									<defs>
										<rect id="SVGID_15_" x="77" y="32.5" width="97.1" height="69.4"/>
									</defs>
									<clipPath id="SVGID_16_">
										<use xlink:href="#SVGID_15_"  style="overflow:visible;"/>
									</clipPath>
									<g id="组_32317" transform="translate(-20.837 -19.637)" class="st23">
										<path id="路径_41936" class="st24" d="M121.5,74.1h57.6v38.7h-57.6V74.1z"/>
									</g>
								</g>
							</g>
						</g>
						<g>
							<defs>
								<path id="SVGID_17_" d="M155.2,73.4c2.7,0,4.9-2.2,4.9-4.9c0,0,0,0,0,0c0-2.7-2.2-4.9-4.9-4.9c0,0,0,0,0,0
									c-2.7,0-4.9,2.2-4.9,4.9c0,0,0,0,0,0C150.3,71.2,152.5,73.4,155.2,73.4C155.2,73.4,155.2,73.4,155.2,73.4z"/>
							</defs>
							<clipPath id="SVGID_18_">
								<use xlink:href="#SVGID_17_"  style="overflow:visible;"/>
							</clipPath>
							<g id="组_32320" transform="translate(34.825 7.541)" class="st25">
								<g>
									<defs>
										<rect id="SVGID_19_" x="63" y="44.5" width="97.1" height="69.4"/>
									</defs>
									<clipPath id="SVGID_20_">
										<use xlink:href="#SVGID_19_"  style="overflow:visible;"/>
									</clipPath>
									<g id="组_32319" transform="translate(-34.825 -7.657)" class="st26">
										<path id="路径_41939" class="st27" d="M142.6,56h25.2v25.2h-25.2V56z"/>
									</g>
								</g>
							</g>
						</g>
						<g>
							<defs>
								<path id="SVGID_21_" d="M131.6,119.6c0-0.6,0.5-1.1,1.1-1.1h8.8c3.1,0,5.7-2.6,5.7-5.7c0-0.3,0-0.7-0.1-1L142.1,83
									c-0.2-1.3,0.7-2.6,2-2.8c0.1,0,0.3,0,0.4,0h19.4c1,0,2,0.7,2.3,1.6l11.2,32.4c0.9,2.5-0.5,5.3-3,6.2
									c-0.5,0.2-1.1,0.3-1.6,0.3h-40.1C132.1,120.7,131.6,120.2,131.6,119.6z"/>
							</defs>
							<clipPath id="SVGID_22_">
								<use xlink:href="#SVGID_21_"  style="overflow:visible;"/>
							</clipPath>
							<g id="组_32322" transform="translate(22.383 18.5)" class="st28">
								<g>
									<defs>
										<rect id="SVGID_23_" x="75.4" y="33.6" width="97.1" height="69.4"/>
									</defs>
									<clipPath id="SVGID_24_">
										<use xlink:href="#SVGID_23_"  style="overflow:visible;"/>
									</clipPath>
									<g id="组_32321" transform="translate(-22.383 -18.617)" class="st29">
										<path id="路径_41942" class="st27" d="M123.9,72.5h61.5v56h-61.5V72.5z"/>
									</g>
								</g>
							</g>
						</g>
						<g>
							<defs>
								<path id="SVGID_25_" d="M146.2,81.7l6.4,34.2c0.4,2.2-1,4.3-3.3,4.7c-0.2,0-0.5,0.1-0.8,0.1h-15.8c-0.6,0-1.1-0.5-1.1-1.1
									c0-0.6,0.5-1.1,1.1-1.1h9.3c2.9,0,5.2-2.4,5.2-5.3c0-0.3,0-0.6-0.1-0.9L142,82.8c-0.2-1.2,0.6-2.4,1.8-2.6
									c0.1,0,0.3,0,0.4,0C145.2,80.1,146,80.8,146.2,81.7z"/>
							</defs>
							<clipPath id="SVGID_26_">
								<use xlink:href="#SVGID_25_"  style="overflow:visible;"/>
							</clipPath>
							<g id="组_32324" transform="translate(22.383 18.5)" class="st30">
								<g>
									<defs>
										<rect id="SVGID_27_" x="75.4" y="33.6" width="97.1" height="69.4"/>
									</defs>
									<clipPath id="SVGID_28_">
										<use xlink:href="#SVGID_27_"  style="overflow:visible;"/>
									</clipPath>
									<g id="组_32323" transform="translate(-22.383 -18.617)" class="st31">
										<path id="路径_41945" class="st18" d="M123.9,72.5h36.5v56h-36.5V72.5z"/>
									</g>
								</g>
							</g>
						</g>
						<g>
							<defs>
								<path id="SVGID_29_" d="M111.3,100.5l1.9-7.2c0.1-0.3,0.4-0.5,0.7-0.4c0,0,0,0,0,0c0.3,0.1,0.4,0.3,0.4,0.6l0,0.1l-1.9,7.2
									c-0.1,0.3-0.4,0.5-0.7,0.4c0,0,0,0,0,0C111.4,101.1,111.3,100.8,111.3,100.5L111.3,100.5l1.9-7.2L111.3,100.5z M113.6,100.5
									l1.9-7.2c0.1-0.3,0.4-0.5,0.7-0.4c0,0,0,0,0,0c0.3,0.1,0.4,0.3,0.4,0.6l0,0.1l-1.9,7.2c-0.1,0.3-0.4,0.5-0.7,0.4
									c0,0,0,0,0,0C113.7,101.1,113.5,100.8,113.6,100.5L113.6,100.5l1.9-7.2L113.6,100.5z M115.8,100.5l1.9-7.2
									c0.1-0.3,0.4-0.5,0.7-0.4c0,0,0,0,0,0c0.3,0.1,0.4,0.3,0.4,0.6l0,0.1l-1.9,7.2c-0.1,0.3-0.4,0.5-0.7,0.4c0,0,0,0,0,0
									C116,101.1,115.8,100.8,115.8,100.5L115.8,100.5l1.9-7.2L115.8,100.5z M118.1,100.5l1.9-7.2c0.1-0.3,0.4-0.5,0.7-0.4
									c0,0,0,0,0,0c0.3,0.1,0.4,0.3,0.4,0.6l0,0.1l-1.9,7.2c-0.1,0.3-0.4,0.5-0.7,0.4c0,0,0,0,0,0
									C118.2,101.1,118,100.8,118.1,100.5L118.1,100.5l1.9-7.2L118.1,100.5z"/>
							</defs>
							<clipPath id="SVGID_30_">
								<use xlink:href="#SVGID_29_"  style="overflow:visible;"/>
							</clipPath>
							<g id="组_32326" transform="translate(8.945 26.969)" class="st32">
								<g>
									<defs>
										<rect id="SVGID_31_" x="88.9" y="25.1" width="97.1" height="69.4"/>
									</defs>
									<clipPath id="SVGID_32_">
										<use xlink:href="#SVGID_31_"  style="overflow:visible;"/>
									</clipPath>
									<g id="组_32325" transform="translate(-8.945 -27.085)" class="st33">
										<path id="路径_41948" class="st18" d="M103.6,85.3h25.2V109h-25.2V85.3z"/>
									</g>
								</g>
							</g>
						</g>
					</g>
				</g>
			</g>
			<g id="Plant" transform="translate(-9.867 31.659)">
				<ellipse id="椭圆_64" class="st4" cx="79.4" cy="85.5" rx="9.2" ry="0.8"/>
				<path id="路径_1109" class="st14" d="M88.5,86.6l-9.2,0.6l-9.2-0.6c0,0-1,6.6,5.1,14.9c0.2,0.2,0.4,0.4,0.7,0.5
					c2.2,0.7,4.7,0.7,6.9,0c0.3-0.1,0.5-0.2,0.7-0.5C89.6,93.2,88.5,86.6,88.5,86.6z"/>
				<path id="路径_1111" class="st34" d="M60.7,75.8c0.4,0.4,0.8,0.9,1.1,1.4c0.7,0.7,1.4,1.4,2.2,2c1.8,1.2,4,1.6,5.7,3
					c1.9,1.5,3.4,3.5,4.2,5.8l2.4-1.4c0.6-0.4-2.4-4-2.7-4.4c-2-1.9-4.3-3.2-7-3.9c-2.1-0.5-4.1-1.3-5.9-2.3
					C60.8,75.8,60.7,75.8,60.7,75.8z"/>
				<path id="路径_1116" class="st35" d="M93.8,71.1c-0.3,0.6-0.5,1.2-0.7,1.8c-0.4,1-0.9,2-1.6,2.8c-1.4,1.9-3.5,3.1-4.9,5.2
					c-1.4,2.3-2.2,4.9-2.2,7.6l-3-0.6c-0.8-0.2,1-5.1,1.2-5.5c1.3-2.7,3.3-4.9,5.8-6.6c2-1.3,3.8-2.8,5.3-4.6
					C93.7,71.2,93.8,71.2,93.8,71.1z"/>
				<path id="路径_1110" class="st34" d="M69.9,62.4c0.1,0.8,0.2,1.7,0.1,2.5c0.1,1.4,0.4,2.8,0.8,4.1c1,2.9,3.1,5.2,3.9,8.3
					c0.9,3.3,0.8,6.9-0.3,10.2l4,0.5c1,0.1,0.8-6.6,0.7-7.2c-0.6-3.8-2.1-7.3-4.5-10.4c-1.9-2.3-3.5-4.9-4.7-7.7
					C69.9,62.6,69.9,62.5,69.9,62.4z"/>
				<path id="路径_41960" class="st1" d="M82.5,86.5c0.1-1.3,0.4-2.6,1-3.8c1.1-2.2,3.1-3.1,4.8-4.8s3.4-3.8,4.7-5.4
					c0.5-0.6,0.5-0.8,0.6-0.9c-1.7,2.2-3.5,4.3-5.5,6.2c-1.7,1.7-3.8,2.7-4.9,4.8c-0.5,1.2-0.9,2.6-1,3.9L82.5,86.5z"/>
				<path id="路径_1113" class="st34" d="M89.3,62.4c-0.1,0.8-0.1,1.7-0.1,2.5c-0.1,1.4-0.4,2.8-0.8,4.1c-1,2.9-3.1,5.2-3.9,8.3
					c-0.8,3.3-0.7,6.9,0.3,10.2l-4,0.5c-1.1,0.1-0.8-6.6-0.7-7.2c0.6-3.8,2.1-7.3,4.5-10.4c1.9-2.3,3.5-4.9,4.7-7.7
					C89.2,62.6,89.2,62.5,89.3,62.4z"/>
				<path id="路径_1115" class="st35" d="M79.3,62.4c-0.1,0.3-0.2,0.7-0.2,1c-0.2,0.9-0.3,1.7-0.3,2.6c0.2,1.9,0.6,3.8,1.3,5.5
					c0.9,2.6,1.4,5.3,1.6,8.1c0,1.3-0.1,2.6-0.4,3.8c-0.1,0.4-0.8,3.7-1.2,3.7c-1.1,0.1-2.2,0.2-3.3,0.1c0.1-0.6,0.3-1.3,0.6-1.8
					c1-3.2,0.4-5.9-0.2-9.1c-0.5-2.5-0.5-5.1-0.2-7.7C77.2,66.4,78,64.2,79.3,62.4z"/>
				<path id="路径_1112" class="st35" d="M98,79.2c-0.5,0.3-1,0.7-1.4,1.1c-0.8,0.6-1.6,1.1-2.6,1.5c-2,0.8-4.2,0.8-6.2,1.8
					c-2.2,1.1-4,2.8-5.2,4.9l-2.1-1.9c-0.6-0.5,3.1-3.5,3.5-3.8c2.3-1.5,4.9-2.3,7.6-2.5c2.1-0.1,4.2-0.5,6.3-1.1L98,79.2z"/>
				<path id="路径_1114" class="st35" d="M67.7,70.2c2.2,3.2,4.9,6,7.9,8.5c4.5,3.5,1.8,8.6,1.8,8.6h-3.1c0.5-2,0.1-4.1-1-5.8
					C71.4,79,68.1,75.1,67.7,70.2z"/>
				<path id="路径_41958" class="st1" d="M75.9,86.8c0.7-1.2,0.9-2.7,0.5-4.1c-1.2-1.9-2.7-3.6-4.4-5.1c-1.6-2.2-3-4.6-4.2-7.1
					v-0.3c1.2,2.6,2.7,5,4.4,7.2c1.8,1.4,3.3,3.1,4.4,5.1c0.5,1.4,0.3,2.9-0.4,4.2L75.9,86.8z"/>
				<path id="路径_41959" class="st1" d="M78.6,86.8c0.4-0.7,0.6-1.5,0.8-2.3c0.4-3.2,0.2-6.5-0.6-9.6c-0.6-2.7-0.8-5.5-0.6-8.2
					c0.1-1.4,0.4-2.8,0.9-4.1c-0.4,1.3-0.7,2.7-0.8,4.1c-0.3,2.8-0.1,5.6,0.6,8.2c0.8,3,1,6.2,0.7,9.3c-0.3,1.3-0.6,2.6-0.6,2.6
					L78.6,86.8z"/>
				<g id="组_607" transform="translate(5.98 15.348)">
					<path id="路径_1117" class="st36" d="M82.6,70.2L82.6,70.2c0,0.4-4.2,0.8-9.3,0.8s-9.2-0.3-9.2-0.8c-0.8,0.9-1.3,2-1.5,3.2
						c0,0,0,0,0,0c0,0.8,4.8,1.5,10.7,1.5c5.9,0,10.7-0.7,10.7-1.5h0C84,72.2,83.4,71.1,82.6,70.2z"/>
					<path id="路径_1118" class="st37" d="M73.4,71.4c3,0.1,6.1-0.2,9-0.7c0.2,0,0.3-0.2,0.3-0.4c0-0.1,0-0.1-0.1-0.2h0
						c0,0.4-4.1,0.8-9.2,0.8c-5.1,0-9.2-0.3-9.2-0.8l0,0c-0.1,0.2-0.1,0.4,0,0.6c0.1,0,0.1,0.1,0.2,0.1
						C67.4,71.2,70.4,71.4,73.4,71.4z"/>
				</g>
			</g>
		</g>
	</g>
</g>
</svg>
